<mxfile host="Electron" modified="2024-02-01T12:27:34.737Z" agent="Mozilla/5.0 (X11; Linux x86_64) AppleWebKit/537.36 (KHTML, like Gecko) draw.io/22.1.18 Chrome/120.0.6099.199 Electron/28.1.2 Safari/537.36" etag="ql-qHojrbZdghyuT_RTG" version="22.1.18" type="device">
  <diagram name="Page-1" id="DSZO5iab6UNBi82KrBNa">
    <mxGraphModel dx="569" dy="363" grid="1" gridSize="10" guides="1" tooltips="1" connect="1" arrows="1" fold="1" page="1" pageScale="1" pageWidth="850" pageHeight="1100" math="0" shadow="0">
      <root>
        <mxCell id="0" />
        <mxCell id="1" parent="0" />
        <mxCell id="kiYmPt6xPDN-6jHSczkl-1" value="" style="ellipse;whiteSpace=wrap;html=1;" vertex="1" parent="1">
          <mxGeometry x="60" y="90" width="240" height="230" as="geometry" />
        </mxCell>
        <mxCell id="kiYmPt6xPDN-6jHSczkl-2" value="Reinforcement Learning" style="ellipse;whiteSpace=wrap;html=1;" vertex="1" parent="1">
          <mxGeometry x="90" y="160" width="100" height="60" as="geometry" />
        </mxCell>
        <mxCell id="kiYmPt6xPDN-6jHSczkl-3" value="Robot Learning" style="text;html=1;strokeColor=none;fillColor=none;align=center;verticalAlign=middle;whiteSpace=wrap;rounded=0;" vertex="1" parent="1">
          <mxGeometry x="135" y="100" width="90" height="30" as="geometry" />
        </mxCell>
        <mxCell id="kiYmPt6xPDN-6jHSczkl-4" value="Imitation Learning" style="ellipse;whiteSpace=wrap;html=1;" vertex="1" parent="1">
          <mxGeometry x="200" y="190" width="80" height="60" as="geometry" />
        </mxCell>
        <mxCell id="kiYmPt6xPDN-6jHSczkl-5" value="others..." style="ellipse;whiteSpace=wrap;html=1;" vertex="1" parent="1">
          <mxGeometry x="120" y="230" width="80" height="60" as="geometry" />
        </mxCell>
      </root>
    </mxGraphModel>
  </diagram>
</mxfile>
